<svg width="84" height="146" viewBox="0 0 84 146" fill="none" xmlns="http://www.w3.org/2000/svg">
<path d="M32.6486 35.176C36.3606 35.176 39.4539 36.072 41.9286 37.864C45.2566 40.2533 46.9206 43.9867 46.9206 49.064C46.9206 52.7333 45.8966 55.8693 43.8486 58.472C41.6299 61.2453 38.5366 62.632 34.5686 62.632C32.4779 62.632 30.5793 62.1413 28.8726 61.16C27.1659 60.136 26.1633 58.408 25.8646 55.976L26.4406 55.784C26.9099 57.6187 27.9979 58.8987 29.7046 59.624C30.8566 60.136 31.8806 60.392 32.7766 60.392C36.2753 60.392 38.8139 59.0267 40.3926 56.296C41.5446 54.2907 42.1206 51.9013 42.1206 49.128C42.1206 44.6907 40.8833 41.4907 38.4086 39.528C36.5313 37.992 34.1419 37.224 31.2406 37.224C30.5579 37.224 29.9606 37.2667 29.4486 37.352C28.9793 37.3947 26.8459 37.736 23.0486 38.376V76.328C23.0913 77.48 23.5179 78.44 24.3286 79.208C25.1393 79.976 26.0779 80.36 27.1446 80.36H27.9766V81H13.9606V80.36H14.7926C15.8593 80.36 16.7979 79.976 17.6086 79.208C18.4193 78.44 18.8459 77.48 18.8886 76.328V41.704C18.8886 40.5947 18.5686 39.7413 17.9286 39.144C17.2886 38.504 16.4566 38.184 15.4326 38.184C15.2193 38.184 15.0059 38.2053 14.7926 38.248L14.0246 38.312L13.8966 37.672C16.1153 37.4587 19.0806 37.0533 22.7926 36.456C26.5473 35.816 28.8726 35.4533 29.7686 35.368C30.6646 35.24 31.6246 35.176 32.6486 35.176Z" fill="#940B01"/>
<path d="M45.3614 69.184H41.2654V107.328C41.2654 108.437 41.6494 109.397 42.4174 110.208C43.2281 110.976 44.2094 111.36 45.3614 111.36H46.1294L46.1934 112H32.1774V111.36H33.0094C34.1187 111.36 35.0574 110.976 35.8254 110.208C36.6361 109.44 37.0627 108.501 37.1054 107.392V71.872C37.0627 70.7627 36.6361 69.824 35.8254 69.056C35.0574 68.2453 34.1187 67.84 33.0094 67.84H32.1774V67.2H49.4574C53.3401 67.2 56.3907 68.288 58.6094 70.464C60.8281 72.5973 61.9374 75.392 61.9374 78.848C61.9374 82.2613 60.8707 85.2267 58.7374 87.744C56.6467 90.2187 54.0867 91.456 51.0574 91.456C51.6974 91.7547 52.4441 92.352 53.2974 93.248C54.1934 94.1013 54.9827 94.9973 55.6654 95.936C59.3347 101.184 61.7241 104.427 62.8334 105.664C63.9427 106.859 64.7321 107.691 65.2014 108.16C65.6707 108.587 66.1827 109.013 66.7374 109.44C67.2921 109.867 67.8467 110.208 68.4014 110.464C69.6387 111.061 70.9614 111.36 72.3694 111.36V112H68.8494C67.0147 112 65.3081 111.68 63.7294 111.04C62.1507 110.357 60.9561 109.675 60.1454 108.992C59.3774 108.267 58.6947 107.584 58.0974 106.944C57.5427 106.261 55.9641 104.043 53.3614 100.288C50.7587 96.5333 49.2441 94.4 48.8174 93.888C48.3907 93.3333 47.9427 92.8 47.4734 92.288C46.1081 90.8373 44.7427 90.112 43.3774 90.112V89.472C43.7187 89.5147 44.1667 89.536 44.7214 89.536C45.2761 89.536 45.9587 89.5147 46.7694 89.472C52.0601 89.344 55.3881 87.1253 56.7534 82.816C57.0094 81.9627 57.1374 81.1733 57.1374 80.448C57.1374 79.68 57.1374 79.1893 57.1374 78.976C57.0521 76.1173 56.3054 73.8133 54.8974 72.064C53.4894 70.3147 51.5907 69.376 49.2014 69.248C48.1774 69.2053 46.8974 69.184 45.3614 69.184Z" fill="#940B01"/>
<rect x="2.5" y="2.5" width="79" height="141" stroke="#940B01" stroke-width="5"/>
</svg>
