<svg width="32" height="43" viewBox="0 0 32 43" fill="none" xmlns="http://www.w3.org/2000/svg">
<path d="M5.33333 42.5162L0 38.7143V13.2727L5.33333 15.7075V42.5162ZM8.88889 15.901V43L32 39.4991V12.5417L8.88889 15.901ZM19.4898 1.79167C15.7618 1.79167 12.4533 5.38396 12.4462 9.43492L12.4444 12.4503C12.4444 12.9967 12.9298 13.4178 13.4667 13.3354C13.9004 13.2691 14.2222 12.8928 14.2222 12.4503V9.4385C14.2276 6.37475 16.7396 3.58333 19.4898 3.58333C20.4444 3.58333 21.296 3.93271 21.9502 4.59383C22.7004 5.35171 23.1129 6.44821 23.1111 7.68804V10.8181C23.1111 11.3645 23.5964 11.7856 24.1333 11.7032C24.5653 11.6369 24.8853 11.2624 24.8853 10.8217L24.8889 7.68804C24.8924 4.27671 22.5422 1.79167 19.4898 1.79167ZM8.12978 12.5327C8.56533 12.4664 8.88889 12.0902 8.88889 11.6458V7.64683C8.89244 4.58308 11.4062 1.79167 14.1564 1.79167L14.4444 1.81854C15.0951 1.3115 15.8044 0.899417 16.5564 0.594833C15.8364 0.223958 15.0311 0 14.1564 0C10.4302 0 7.12 3.59229 7.11289 7.64325V11.6476C7.11289 12.1959 7.59644 12.6115 8.12978 12.5327Z" fill="#154C9F"/>
</svg>
